<svg xmlns="http://www.w3.org/2000/svg" viewBox="0 0 3548.39 2394.71"><path d="M1360.26,768.76H1771.5a16,16,0,0,1,16,16v258.83a16,16,0,0,1-16,16H1360.26a100,100,0,0,1-100-100V868.76A100,100,0,0,1,1360.26,768.76Z" fill="#8abbff"/><path d="M1950.66,768.76H2361.9a16,16,0,0,1,16,16v258.83a16,16,0,0,1-16,16H1950.66a100,100,0,0,1-100-100V868.76A100,100,0,0,1,1950.66,768.76Z" transform="translate(4228.56 1828.35) rotate(180)" fill="#8abbff"/><path d="M1763.31,586.21c11.53,2.08,11.15-12.09,50.65-11.72s35.35,14,53.3,13.26,53.46-80.66,176.5-92.63c153.44-14.93,136.3,127.7,136.2,140s-8.17,68.22-45.5,75.4c-7.55,1.23-595.65-1-624-.94-14.17-2.65-55.18-23.77-47.81-108.36s62.93-109.55,119.63-104.43C1688.86,506.46,1750.5,583.9,1763.31,586.21Z" fill="#8abbff"/><path d="M1326.17,1117.42h451.28a10.06,10.06,0,0,1,10.06,10.06V1871a10.06,10.06,0,0,1-10.06,10.06H1420.7a102.61,102.61,0,0,1-102.61-102.61v-653A8.08,8.08,0,0,1,1326.17,1117.42Z" fill="#8abbff"/><path d="M1953.27,1116.42H2310a10.06,10.06,0,0,1,10.06,10.06V1870a10.06,10.06,0,0,1-10.06,10.06H1858.74a8.08,8.08,0,0,1-8.08-8.08V1219A102.61,102.61,0,0,1,1953.27,1116.42Z" transform="translate(4170.73 2996.49) rotate(180)" fill="#8abbff"/></svg>